<?xml version="1.0" encoding="UTF-8" standalone="no"?>
<!-- Created with Inkscape (http://www.inkscape.org/) -->

<svg
   width="8.5441818mm"
   height="13.500473mm"
   viewBox="0 0 8.5441818 13.500473"
   version="1.1"
   id="svg5"
   xml:space="preserve"
   inkscape:version="1.2 (dc2aedaf03, 2022-05-15)"
   sodipodi:docname="library-map-icon.svg"
   xmlns:inkscape="http://www.inkscape.org/namespaces/inkscape"
   xmlns:sodipodi="http://sodipodi.sourceforge.net/DTD/sodipodi-0.dtd"
   xmlns="http://www.w3.org/2000/svg"
   xmlns:svg="http://www.w3.org/2000/svg"><sodipodi:namedview
     id="namedview7"
     pagecolor="#ffffff"
     bordercolor="#000000"
     borderopacity="0.25"
     inkscape:showpageshadow="2"
     inkscape:pageopacity="0.0"
     inkscape:pagecheckerboard="0"
     inkscape:deskcolor="#d1d1d1"
     inkscape:document-units="mm"
     showgrid="false"
     inkscape:zoom="7.2407734"
     inkscape:cx="390.49696"
     inkscape:cy="313.84769"
     inkscape:window-width="1920"
     inkscape:window-height="1013"
     inkscape:window-x="-9"
     inkscape:window-y="-9"
     inkscape:window-maximized="1"
     inkscape:current-layer="layer1" /><defs
     id="defs2" /><g
     inkscape:label="Layer 1"
     inkscape:groupmode="layer"
     id="layer1"
     transform="translate(-102.92514,-76.360914)"><g
       id="g1592"
       inkscape:export-filename="mobius-map-pin.svg"
       inkscape:export-xdpi="96"
       inkscape:export-ydpi="96"><circle
         style="fill:#ffffff;fill-opacity:1;stroke:none;stroke-width:0.190509;stroke-dasharray:none;stroke-opacity:1"
         id="path1077"
         cx="107.20181"
         cy="80.59581"
         r="3.9819028"
         inkscape:export-filename="..\Desktop\graphics\mobius-map-pin.png"
         inkscape:export-xdpi="96"
         inkscape:export-ydpi="96" /><path
         id="path61"
         style="fill:#0099a8;fill-opacity:1;stroke:none;stroke-width:0.17134;stroke-dasharray:none;stroke-opacity:1"
         d="m 107.19727,76.361081 c -2.35944,-7e-6 -4.27213,1.912701 -4.27213,4.272142 7e-4,1.098376 0.42441,2.154282 1.18316,2.948461 0.056,0.0627 0.12161,0.115591 0.18366,0.179795 0.0134,0.01401 0.0566,0.05502 0.0883,0.07974 0.0441,0.0395 0.0888,0.07803 0.13441,0.115685 1.38795,1.306067 2.68365,5.90449 2.68365,5.90449 l 5.9e-4,-0.0028 c 0.004,-0.01448 1.30806,-4.637211 2.70045,-5.918662 0.0314,-0.02622 0.0625,-0.05292 0.0931,-0.08003 0.0397,-0.03207 0.0773,-0.07887 0.11703,-0.10506 0.0639,-0.05935 0.13404,-0.122692 0.19462,-0.191196 0.74796,-0.792502 1.16479,-1.840868 1.16521,-2.930587 0,-2.359442 -1.91269,-4.272149 -4.27213,-4.272141 z M 107.19,76.9469 c 1.96672,0 3.56103,1.594333 3.56103,3.561041 0,1.966711 -1.59431,3.561044 -3.56103,3.561044 -1.96672,0 -3.56105,-1.594334 -3.56105,-3.561044 0,-1.966708 1.59433,-3.561041 3.56105,-3.561041 z"
         sodipodi:nodetypes="scccccccccccccssssss" /><path
         style="fill:#0099a8;fill-opacity:1;stroke-width:0.00706483"
         d="m 104.48091,82.141864 c -0.002,-0.0077 -8.3e-4,-0.267867 0.004,-0.578325 0.0148,-1.163655 0.004,-2.130242 -0.0283,-2.585005 -0.004,-0.05441 -0.007,-0.130693 -0.008,-0.169543 l -9.6e-4,-0.07064 0.16758,-0.0085 c 0.37674,-0.01919 0.67977,-0.0874 0.99105,-0.223006 0.0527,-0.02295 0.0931,-0.04182 0.27554,-0.128649 0.11477,-0.05464 0.15437,-0.07247 0.17307,-0.07794 0.009,-0.0028 0.021,-0.0079 0.0251,-0.01114 0.0173,-0.01378 0.1888,-0.05694 0.25559,-0.06434 0.11949,-0.01326 0.28862,0.01438 0.40371,0.06593 0.11751,0.05265 0.22039,0.109082 0.3188,0.174901 l 0.0613,0.04103 0.0947,-0.06339 c 0.14466,-0.09682 0.28001,-0.157139 0.43383,-0.193329 0.0797,-0.01878 0.0939,-0.01993 0.24019,-0.01968 0.14754,3.41e-4 0.1609,0.0014 0.26359,0.0231 0.14792,0.0312 0.28119,0.07244 0.51708,0.159964 0.52098,0.193321 0.7333,0.244787 1.05971,0.256858 l 0.12364,0.0046 -0.004,0.346177 c -8.3e-4,0.190397 8.3e-4,0.482882 0.004,0.649963 0.009,0.38873 0.0276,0.914558 0.0361,1.091516 0.008,0.186119 0.0477,1.083977 0.0531,1.22928 0.002,0.06412 0.005,0.121505 0.007,0.127539 9.5e-4,0.006 -8.2e-4,0.01668 -0.006,0.02369 -0.008,0.01177 -0.0153,0.01216 -0.0901,0.005 -0.1817,-0.01745 -0.49883,-0.04221 -0.82261,-0.06425 -0.26882,-0.01829 -0.78388,-0.03952 -1.22222,-0.05035 -0.34568,-0.0085 -1.19189,-0.0042 -1.46243,0.0075 -0.0894,0.0038 -0.2483,0.01039 -0.35324,0.01449 -0.26032,0.01018 -0.57504,0.02645 -0.68174,0.03527 -0.0485,0.0041 -0.20277,0.01528 -0.34264,0.02504 -0.13988,0.0098 -0.27818,0.02072 -0.30734,0.02431 -0.0291,0.0037 -0.0805,0.0086 -0.11408,0.01119 -0.0566,0.0044 -0.0613,0.0037 -0.0656,-0.0091 z m 0.32104,-0.295114 c 0.0563,-0.0098 0.14837,-0.03067 0.20471,-0.04647 0.093,-0.02605 0.3647,-0.116943 0.39916,-0.13353 0.007,-0.0038 0.0364,-0.01494 0.0637,-0.0249 0.0271,-0.01 0.0796,-0.02953 0.11658,-0.04351 0.21357,-0.0809 0.34366,-0.125905 0.46275,-0.160101 0.38414,-0.110324 0.67155,-0.09246 0.91135,0.05663 l 0.0494,0.03075 0.004,-0.581202 c 0.002,-0.31966 0.006,-0.948534 0.009,-1.397494 l 0.004,-0.816294 -0.0805,-0.08093 c -0.13062,-0.131432 -0.25505,-0.209404 -0.38319,-0.240131 -0.0724,-0.01739 -0.20417,-0.01862 -0.28814,-0.0028 -0.0838,0.01589 -0.24898,0.07043 -0.34167,0.112792 -0.0116,0.0053 -0.0468,0.02052 -0.0777,0.03377 -0.031,0.01324 -0.11214,0.04799 -0.18013,0.07723 -0.12287,0.05282 -0.24742,0.102409 -0.32852,0.130767 -0.10286,0.03595 -0.15221,0.04984 -0.34617,0.09729 -0.0401,0.0098 -0.24191,0.03997 -0.3303,0.04938 l -0.0406,0.0044 v 1.476038 1.476043 h 0.0337 c 0.0186,0 0.0797,-0.008 0.13599,-0.01776 z m 4.83617,-1.488808 c -0.004,-0.813073 -0.005,-1.47893 -0.006,-1.479682 -6.1e-4,-7.12e-4 -0.0363,-0.0048 -0.0789,-0.0091 -0.12853,-0.01295 -0.3021,-0.04471 -0.4237,-0.07753 -0.0688,-0.0186 -0.23615,-0.07087 -0.25078,-0.07838 -0.005,-0.003 -0.0535,-0.02189 -0.10593,-0.04201 -0.0525,-0.02012 -0.10496,-0.04093 -0.11656,-0.04624 -0.0116,-0.0053 -0.0468,-0.0205 -0.0777,-0.03376 -0.13912,-0.05926 -0.214,-0.09167 -0.24019,-0.103971 -0.0896,-0.04206 -0.26683,-0.09998 -0.35679,-0.116572 -0.0635,-0.01172 -0.18617,-0.01313 -0.2442,-0.0028 -0.0837,0.01489 -0.18699,0.06145 -0.27858,0.125652 -0.0251,0.0177 -0.0849,0.07106 -0.13247,0.118589 l -0.0864,0.0864 1.6e-4,0.06232 c 5.8e-4,0.321653 0.0213,2.724817 0.0234,2.726918 8.2e-4,0.0015 0.0197,-0.0086 0.0404,-0.02264 0.19896,-0.133903 0.47781,-0.165638 0.80202,-0.09128 0.0855,0.01962 0.31106,0.08805 0.35971,0.10916 0.007,0.0034 0.0619,0.0237 0.1201,0.04516 0.0582,0.02147 0.17274,0.06416 0.25433,0.09487 0.35081,0.132003 0.55789,0.188879 0.75947,0.208596 0.0137,0.0014 0.0292,0.003 0.0345,0.0035 0.008,9.49e-4 0.008,-0.211609 0.004,-1.477186 z"
         id="path740" /></g></g></svg>
